<svg xmlns="http://www.w3.org/2000/svg" width="1200" height="800" viewBox="0 0 1200 800" role="img" aria-label="Minh họa SHB Agents"><defs><filter id="shadow" x="-25%" y="-25%" width="150%" height="160%"><feDropShadow dx="0" dy="18" stdDeviation="22" flood-color="#16233b" flood-opacity=".09"/></filter><linearGradient id="bg" x2="1" y2="1"><stop stop-color="#e5eef3"/><stop offset="1" stop-color="#fff"/></linearGradient></defs><rect width="1200" height="800" fill="url(#bg)"/><circle cx="1120" cy="50" r="350" fill="#287596" opacity=".045"/><g font-family="Arial, sans-serif"><rect x="52" y="44" width="36" height="36" rx="11" fill="#287596"/><path d="m63 62 7 7 11-15" stroke="white" stroke-width="3" fill="none" stroke-linecap="round"/><text x="101" y="70" fill="#182532" font-size="24" font-weight="700">SHB Agents</text><text x="1148" y="65" text-anchor="end" fill="#687782" font-size="11" letter-spacing="2">PRODUCT SHOWCASE / FPT POLYTECHNIC</text>
<text x="54" y="143" font-size="12" fill="#287596" font-weight="700">KẾT NỐI HÀNH TRÌNH. ĐỒNG BỘ VẬN HÀNH.</text>
<text x="52" y="197" font-size="40" fill="#223944" font-weight="700">Mỗi hành trình, một kết nối.</text>
<text x="54" y="235" font-size="17" fill="#6c818c" font-weight="400">Không gian quản trị cho hệ thống vận tải và đội ngũ vận hành.</text>
<rect x="54" y="286" width="728" height="407" rx="20" fill="#f9fbfc" filter="url(#shadow)"/>
<g stroke="#e6ecee" stroke-width="17" fill="none"><path d="M78 370 729 649M102 654 672 306M265 296l84 396M615 304l-42 389M76 485h682"/></g>
<path d="M84 601Q248 618 332 462T744 378" stroke="#d4e6ed" stroke-width="38" fill="none"/>
<path d="M183 569 344 569 344 409 645 409" stroke="#3186a0" stroke-width="6" stroke-dasharray="10 7" stroke-linejoin="round" fill="none"/>
<circle cx="183" cy="569" r="14" fill="#287596" stroke="#fff" stroke-width="5"/><circle cx="645" cy="409" r="14" fill="#e0994c" stroke="#fff" stroke-width="5"/>
<rect x="106" y="601" width="158" height="32" rx="16" fill="#e3eff4"/><text x="121" y="622" font-size="12" fill="#287596" font-weight="600">ĐIỂM KHỞI HÀNH</text><rect x="581" y="347" width="123" height="32" rx="16" fill="#f8eddd"/><text x="596" y="368" font-size="12" fill="#94652b" font-weight="600">ĐIỂM ĐẾN</text>
<rect x="266" y="439" width="180" height="93" rx="20" fill="#fff" filter="url(#shadow)"/><g transform="translate(290 455)" fill="#287596"><rect width="85" height="38" rx="5"/><path d="M89 9h23l19 17v23H89z"/><path d="M96 15h13l12 12H96z" fill="#daedf1"/><circle cx="23" cy="49" r="11" fill="#29424c"/><circle cx="107" cy="49" r="11" fill="#29424c"/></g>
<text x="83" y="326" font-size="11" fill="#648290" font-weight="700">MINH HỌA KẾT NỐI VẬN TẢI</text>
<rect x="808" y="286" width="340" height="407" rx="20" fill="#214857" filter="url(#shadow)"/><text x="837" y="329" font-size="11" fill="#91bdc8" font-weight="700">SHB / OPERATIONS</text>
<text x="837" y="386" font-size="30" fill="#f1f7f6" font-weight="600">Hành trình</text><text x="837" y="425" font-size="30" fill="#f1f7f6" font-weight="600">được kết nối.</text>
<path d="M844 466v155" stroke="#6193a0" stroke-width="2"/>
<g fill="#a3d2bd"><circle cx="844" cy="474" r="6"/><circle cx="844" cy="542" r="6"/><circle cx="844" cy="610" r="6"/></g>
<text x="868" y="480" font-size="18" fill="#d9e9eb" font-weight="600">Lập kế hoạch</text><text x="868" y="508" font-size="12" fill="#9cbec6" font-weight="400">Chuẩn bị cho hành trình</text>
<text x="868" y="548" font-size="18" fill="#d9e9eb" font-weight="600">Phối hợp vận hành</text><text x="868" y="576" font-size="12" fill="#9cbec6" font-weight="400">Kết nối công việc</text>
<text x="868" y="616" font-size="18" fill="#d9e9eb" font-weight="600">Theo dõi &amp; quản trị</text><text x="868" y="644" font-size="12" fill="#9cbec6" font-weight="400">Thông tin tập trung</text><path d="M52 748H1148" stroke="#d4dde3"/><text x="52" y="776" fill="#72808b" font-size="10" letter-spacing="1.5">MINH HỌA TRẢI NGHIỆM · NỘI DUNG MẪU</text><text x="1148" y="776" fill="#287596" font-size="11" text-anchor="end" letter-spacing="1.5">Ý TƯỞNG → SẢN PHẨM</text></g></svg>
