<svg xmlns="http://www.w3.org/2000/svg" width="1200" height="800" viewBox="0 0 1200 800" role="img" aria-label="Minh họa Victionary English"><defs><filter id="shadow" x="-25%" y="-25%" width="150%" height="160%"><feDropShadow dx="0" dy="18" stdDeviation="22" flood-color="#16233b" flood-opacity=".09"/></filter><linearGradient id="bg" x2="1" y2="1"><stop stop-color="#eeebf7"/><stop offset="1" stop-color="#fff"/></linearGradient></defs><rect width="1200" height="800" fill="url(#bg)"/><circle cx="1120" cy="50" r="350" fill="#6c54b6" opacity=".045"/><g font-family="Arial, sans-serif"><rect x="52" y="44" width="36" height="36" rx="11" fill="#6c54b6"/><path d="m63 62 7 7 11-15" stroke="white" stroke-width="3" fill="none" stroke-linecap="round"/><text x="101" y="70" fill="#182532" font-size="24" font-weight="700">Victionary English</text><text x="1148" y="65" text-anchor="end" fill="#687782" font-size="11" letter-spacing="2">PRODUCT SHOWCASE / FPT POLYTECHNIC</text>
<text x="54" y="143" font-size="12" fill="#6c54b6" font-weight="700">MỖI TỪ MỚI. MỘT THẾ GIỚI MỚI.</text>
<text x="52" y="197" font-size="43" fill="#22283a" font-weight="700">Học sâu. Nhớ lâu.</text>
<text x="54" y="235" font-size="17" fill="#737589" font-weight="400">Từ điển học thuật · Ôn tập thông minh · Trợ lý AI</text>
<rect x="54" y="286" width="675" height="407" rx="20" fill="#fff" filter="url(#shadow)"/><text x="87" y="332" font-size="11" fill="#9292a3" font-weight="700">TỪ VỰNG HÔM NAY</text>
<rect x="564" y="310" width="130" height="32" rx="16" fill="#f0ecf8"/><text x="579" y="331" font-size="12" fill="#6c54b6" font-weight="600">VOCABULARY</text>
<text x="87" y="418" font-size="64" fill="#352b53" font-weight="700">serendipity</text>
<text x="89" y="456" font-size="19" fill="#8a829e" font-weight="400">/ˌser.ənˈdɪp.ə.ti/   ·   noun</text>
<circle cx="654" cy="405" r="28" fill="#f0ecf8"/><path d="m642 400 7 0 8-7v24l-8-7h-7z M661 398q10 8 0 15" stroke="#6c54b6" fill="none" stroke-width="2.5"/>
<text x="89" y="512" font-size="22" fill="#424659" font-weight="400">Một khám phá tốt đẹp đến một cách tình cờ.</text>
<path d="M88 543H695" stroke="#edeaf4"/>
<text x="89" y="582" font-size="17" fill="#747284" font-weight="400">“A moment of serendipity can spark a new idea.”</text>
<rect x="89" y="622" width="155" height="32" rx="16" fill="#6c54b6"/><text x="104" y="643" font-size="12" fill="#fff" font-weight="600">+ Bộ từ của tôi</text><rect x="259" y="622" width="131" height="32" rx="16" fill="#f0ecf8"/><text x="274" y="643" font-size="12" fill="#6c54b6" font-weight="600">Nghe phát âm</text>
<rect x="755" y="286" width="392" height="183" rx="20" fill="#352c51" filter="url(#shadow)"/>
<text x="784" y="326" font-size="11" fill="#bbb0d2" font-weight="700">ÔN TẬP CÁCH QUÃNG</text><text x="784" y="371" font-size="21" fill="#fff" font-weight="600">Ghi nhớ theo nhịp của bạn.</text>
<g stroke="#9b83d0" stroke-width="3" fill="none"><path d="M787 429Q815 367 843 419T900 415T958 410T1018 394T1118 380"/></g>
<rect x="755" y="493" width="392" height="200" rx="20" fill="#fff" filter="url(#shadow)"/><text x="784" y="530" font-size="11" fill="#8d849d" font-weight="700">AI LEARNING COMPANION</text>
<text x="784" y="574" font-size="24" fill="#352b53" font-weight="600">Hiểu từ qua ngữ cảnh.</text>
<text x="784" y="610" font-size="16" fill="#7a7488" font-weight="400">Giải nghĩa · Ví dụ · Cách sử dụng</text>
<rect x="784" y="639" width="192" height="32" rx="16" fill="#f0ecf8"/><text x="799" y="660" font-size="12" fill="#6c54b6" font-weight="600">Khám phá cùng trợ lý AI</text><path d="M52 748H1148" stroke="#d4dde3"/><text x="52" y="776" fill="#72808b" font-size="10" letter-spacing="1.5">MINH HỌA TRẢI NGHIỆM · NỘI DUNG MẪU</text><text x="1148" y="776" fill="#6c54b6" font-size="11" text-anchor="end" letter-spacing="1.5">Ý TƯỞNG → SẢN PHẨM</text></g></svg>
